<?xml version="1.0" encoding="UTF-8"?>
<svg id="Layer_1" data-name="Layer 1" xmlns="http://www.w3.org/2000/svg" viewBox="0 0 720 720">
  <defs>
    <style>
      .cls-1 {
        font-family: DGBebo-Bold, 'DG Bebo';
        font-size: 22.94px;
        font-weight: 700;
      }

      .cls-1, .cls-2 {
        fill: #eab8f5;
      }

      .cls-3 {
        fill: #8d5dff;
      }

      .cls-4 {
        fill: #5630d1;
      }

      .cls-5 {
        fill: #abecf0;
      }
    </style>
  </defs>
  <g>
    <text class="cls-1" transform="translate(287.31 456.3)"><tspan x="0" y="0">Hawadeet</tspan></text>
    <path class="cls-3" d="M156.36,313.43c0,5.07-3.81,8.87-8.88,8.87s-8.88-3.8-8.88-8.87,3.81-8.88,8.88-8.88,8.88,3.8,8.88,8.88Z"/>
    <path class="cls-3" d="M173.74,304.55c-5.07,0-8.87,3.8-8.87,8.88s3.8,8.87,8.87,8.87,8.88-3.8,8.88-8.87-3.8-8.88-8.88-8.88Z"/>
    <path class="cls-5" d="M194.93,392.91c-3.8,0-6.7,3.62-6.7,8.51,0,3.45,1.63,7.61,6.16,11.04,5.43-3.61,7.42-7.78,7.42-11.4,0-4.71-3.26-8.15-6.88-8.15Z"/>
    <path class="cls-3" d="M238.95,439.09c-5.08,0-8.87,3.8-8.87,8.88s3.8,8.87,8.87,8.87,8.87-3.8,8.87-8.87-3.8-8.88-8.87-8.88Z"/>
    <path class="cls-3" d="M265.2,439.09c-5.08,0-8.88,3.8-8.88,8.88s3.8,8.87,8.88,8.87,8.88-3.8,8.88-8.87-3.81-8.88-8.88-8.88Z"/>
    <path class="cls-3" d="M277.51,357.24c.18,40.92-5.61,62.83-44,62.83h-6.7c-15.4,0-24.99-2.89-30.97-6.7,5.61-3.8,7.79-8.33,7.79-12.31,0-5.61-4.17-9.96-8.7-9.96s-8.5,4.71-8.5,10.32c0,3.81,1.81,8.15,6.34,11.95-6.88,3.81-18.47,6.7-36.95,6.7-34.94,0-48.35-24.44-48.35-45.81,0-17.38,8.34-32.42,21.19-32.42,10.69,0,12.68,4.53,12.68,11.05,0,2.53-.37,5.43-.73,8.5-.54,3.08-.9,6.34-.9,9.42,0,8.69,3.44,16.11,20.28,16.11,21.55,0,22.27-9.23,21.55-26.43-1.27-16.3-.72-31.33,17.93-31.33,9.41,0,14.3,5.8,14.3,16.66,0,6.88-.18,14.31-.54,24.63-.73,13.94,8.87,15.21,13.58,15.21,13.03,0,18.47-2.54,18.47-13.41,0-2.35-.36-5.61-.73-9.05-.36-3.98-.72-8.15-.72-11.59,0-16.48,4.53-22.63,16.12-22.63,13.76,0,17.56,9.41,17.56,28.25Z"/>
    <path class="cls-5" d="M318.16,372.63c-6.34,0-11.4.36-15.39,1.08,3.44,6.35,9.24,10.51,18.47,10.51,6.34,0,9.05-2.35,9.05-4.89,0-3.25-3.98-6.7-12.14-6.7Z"/>
    <path class="cls-3" d="M362.71,381.69c0,20.64-3.81,38.38-40.21,38.38-20.28,0-33.68-8.14-33.68-25.53,0-11.04.36-17.74,12.13-20.46,3.62,7.06,9.96,11.95,20.29,11.95,7.24,0,10.86-3.26,10.86-6.71,0-4.16-4.88-8.5-13.94-8.5-6.7,0-11.95.36-16.11,1.27-2.35-5.44-3.26-11.95-3.26-18.83,0-12.67,5.43-24.26,24.99-24.26,25.17,0,38.94,24.26,38.94,52.69Z"/>
    <path class="cls-3" d="M411.16,369.74c0,21.72-3.08,50.33-18.47,50.33s-18.65-25.35-18.65-59.21c0-45.45-2.36-74.6,19.92-74.6s17.2,59.57,17.2,83.48Z"/>
    <path class="cls-5" d="M483.68,386.94c-3.26,0-7.24,2.72-8.88,10.14-.72,3.08-1.81,6.88-3.44,10.51,9.78-1.45,15.21-5.44,17.2-11.41.36-1.08.72-2.35.72-3.26,0-3.98-2.54-5.98-5.61-5.98Z"/>
    <path class="cls-5" d="M584.72,386.21c2.72,9.42,7.43,12.67,11.05,12.86,2.89,0,4.71-1.63,4.71-3.98-.19-3.26-3.98-7.42-15.76-8.88Z"/>
    <path class="cls-3" d="M616.23,406.13c0,6.34-2.53,13.94-23.18,13.94h-76.05c-6.88,0-13.4-1.62-17.2-3.25-.72-.37-1.45-.19-1.82.72-5.43,15.93-16.66,36.94-52.33,36.94-14.66,0-21-7.78-21-15.75,0-7.43,5.8-14.49,16.84-14.49,16.3,0,24.45-7.06,28.79-14.85,11.23-1.27,17.57-5.79,20.09-12.5.36-1.45.73-2.71.73-3.98,0-4.88-3.62-7.78-7.43-7.78s-8.69,3.44-10.68,11.59c-.91,3.44-1.99,7.24-3.81,11.04-1.81.19-3.44.19-5.43.19-27.89,0-38.75-15.76-38.75-33.32,0-21.55,16.48-45.45,38.75-45.45,19.92,0,38.75,15.21,38.75,48.53,0,3.25-.19,5.79-.19,7.06l.91.91h71.17c3.08,0,5.98.18,8.33.36,3.09,10.68,8.51,14.67,13.04,14.85,3.8,0,6.51-2.54,6.51-5.8-.18-4.17-4.88-9.05-18.1-10.68-.72-2.71-1.09-5.98-1.45-9.78-.72-9.24-6.87-15.03-17.2-15.03-6.15,0-9.77,2.9-13.03,5.43-3.26,2.71-6.52,5.25-12.14,5.25-8.87,0-15.03-4.52-15.03-13.4,0-12.14,12.5-27.71,38.21-27.71,40.21,0,48.53,22.63,48.53,42.74,0,2.18,0,3.62-.19,5.25,0,1.45-.18,2.9-.18,5.25,0,6.88,1.45,10.68,2.53,14.3,1.09,2.9,1.99,5.43,1.99,9.41Z"/>
    <g>
      <path class="cls-3" d="M226.81,420.07c-15.4,0-24.99-2.89-30.97-6.7,5.61-3.8,7.79-8.33,7.79-12.31,0-5.61-4.17-9.96-8.7-9.96s-8.5,4.71-8.5,10.32c0,3.81,1.81,8.15,6.34,11.95-6.88,3.81-18.47,6.7-36.95,6.7-34.94,0-48.35-24.44-48.35-45.81,0-17.38,8.34-32.42,21.19-32.42,10.69,0,12.68,4.53,12.68,11.05,0,2.53-.37,5.43-.73,8.5-.54,3.08-.9,6.34-.9,9.42,0,8.69,3.44,16.11,20.28,16.11,21.55,0,22.27-9.23,21.55-26.43-1.27-16.3-.72-31.33,17.93-31.33,9.41,0,14.3,5.8,14.3,16.66,0,6.88-.18,14.31-.54,24.63-.73,13.94,8.87,15.21,13.58,15.21.54,0,.9-.37.9-.91s-.36-.91-.9-.91c-4.72,0-12.5-.91-11.77-13.4.36-10.32.55-17.75.55-24.63,0-11.59-5.8-18.46-16.12-18.46-20.46,0-21,16.83-19.74,33.14.73,17.2,0,24.62-19.73,24.62-15.57,0-18.47-6.16-18.47-14.3,0-3.08.36-6.16.91-9.24.36-3.08.72-5.98.72-8.69,0-6.88-2.54-12.86-14.49-12.86-14.12,0-22.99,16.3-22.99,34.22,0,22.27,14.13,47.63,50.16,47.63,19.02,0,31.15-3.08,38.39-7.42,6.34,4.34,16.48,7.42,32.6,7.42.54,0,.9-.36.9-.91s-.36-.91-.9-.91ZM188.23,401.43c0-4.89,2.9-8.51,6.7-8.51s6.88,3.45,6.88,8.15c0,3.62-1.99,7.79-7.42,11.4-4.53-3.44-6.16-7.6-6.16-11.04ZM147.49,302.73c-5.98,0-10.68,4.71-10.68,10.69s4.71,10.68,10.68,10.68,10.68-4.71,10.68-10.68-4.71-10.69-10.68-10.69ZM147.49,322.29c-5.07,0-8.88-3.8-8.88-8.87s3.81-8.88,8.88-8.88,8.88,3.8,8.88,8.88-3.81,8.87-8.88,8.87ZM173.74,302.73c-5.98,0-10.68,4.71-10.68,10.69s4.71,10.68,10.68,10.68,10.69-4.71,10.69-10.68-4.72-10.69-10.69-10.69ZM173.74,322.29c-5.07,0-8.87-3.8-8.87-8.87s3.8-8.88,8.87-8.88,8.88,3.8,8.88,8.88-3.8,8.87-8.88,8.87Z"/>
      <path class="cls-3" d="M265.2,437.28c-5.98,0-10.68,4.72-10.68,10.69s4.71,10.68,10.68,10.68,10.68-4.71,10.68-10.68-4.71-10.69-10.68-10.69ZM265.2,456.83c-5.08,0-8.88-3.8-8.88-8.87s3.8-8.88,8.88-8.88,8.88,3.8,8.88,8.88-3.81,8.87-8.88,8.87ZM238.95,437.28c-5.98,0-10.69,4.72-10.69,10.69s4.71,10.68,10.69,10.68,10.68-4.71,10.68-10.68-4.71-10.69-10.68-10.69ZM238.95,456.83c-5.08,0-8.87-3.8-8.87-8.87s3.8-8.88,8.87-8.88,8.87,3.8,8.87,8.88-3.8,8.87-8.87,8.87ZM259.95,327.18c-12.67,0-17.93,7.24-17.93,24.45,0,3.62.36,7.78.72,11.77.36,3.45.72,6.71.72,8.88,0,9.6-4.16,11.59-16.66,11.59-.55,0-.91.36-.91.91s.36.91.91.91c13.03,0,18.47-2.54,18.47-13.41,0-2.35-.36-5.61-.73-9.05-.36-3.98-.72-8.15-.72-11.59,0-16.48,4.53-22.63,16.12-22.63,13.76,0,17.56,9.41,17.56,28.25.18,40.92-5.61,62.83-44,62.83h-6.7c-.55,0-.91.37-.91.91s.36.91.91.91h6.7c39.84,0,46-23.36,45.81-64.65,0-19.2-4.35-30.06-19.37-30.06Z"/>
      <path class="cls-3" d="M323.78,327.18c-20.83,0-26.8,12.86-26.8,26.08,0,6.7.91,13.58,3.26,19.2-12.67,3.08-13.22,10.68-13.22,22.09,0,18.47,14.3,27.35,35.49,27.35,38.21,0,42.01-19.38,42.01-40.2,0-28.98-14.3-54.51-40.74-54.51ZM322.51,420.07c-20.28,0-33.68-8.14-33.68-25.53,0-11.04.36-17.74,12.13-20.46,3.62,7.06,9.96,11.95,20.29,11.95,7.24,0,10.86-3.26,10.86-6.71,0-4.16-4.88-8.5-13.94-8.5-6.7,0-11.95.36-16.11,1.27-2.35-5.44-3.26-11.95-3.26-18.83,0-12.67,5.43-24.26,24.99-24.26,25.17,0,38.94,24.26,38.94,52.69,0,20.64-3.81,38.38-40.21,38.38ZM302.78,373.72c3.98-.72,9.05-1.08,15.39-1.08,8.15,0,12.14,3.45,12.14,6.7,0,2.54-2.71,4.89-9.05,4.89-9.24,0-15.04-4.16-18.47-10.51Z"/>
      <path class="cls-3" d="M393.95,284.45c-24.09,0-21.73,30.97-21.73,76.42,0,34.58,3.26,61.02,20.46,61.02s20.28-30.24,20.28-52.15c0-23.91,5.07-85.3-19.01-85.3ZM411.16,369.74c0,21.72-3.08,50.33-18.47,50.33s-18.65-25.35-18.65-59.21c0-45.45-2.36-74.6,19.92-74.6s17.2,59.57,17.2,83.48Z"/>
      <path class="cls-3" d="M517,420.07c-6.88,0-13.4-1.62-17.2-3.25-.72-.37-1.45-.19-1.82.72-5.43,15.93-16.66,36.94-52.33,36.94-14.66,0-21-7.78-21-15.75,0-7.43,5.8-14.49,16.84-14.49,16.3,0,24.45-7.06,28.79-14.85,11.23-1.27,17.57-5.79,20.09-12.5.36-1.45.73-2.71.73-3.98,0-4.88-3.62-7.78-7.43-7.78s-8.69,3.44-10.68,11.59c-.91,3.44-1.99,7.24-3.81,11.04-1.81.19-3.44.19-5.43.19-27.89,0-38.75-15.76-38.75-33.32,0-21.55,16.48-45.45,38.75-45.45,19.92,0,38.75,15.21,38.75,48.53,0,3.25-.19,5.79-.19,7.06l.91.91h13.77c.54,0,.9-.37.9-.91s-.36-.91-.9-.91h-12.86c.18-1.45.18-3.44.18-6.15,0-34.23-19.92-50.34-40.56-50.34-23.36,0-40.56,24.99-40.56,47.26,0,18.29,11.59,35.13,40.56,35.13l4.34-.18c-4.34,7.06-11.95,12.86-26.62,12.86-11.95,0-18.65,8.14-18.65,16.3,0,8.69,7.24,17.56,22.81,17.56,36.4,0,48.35-21.55,53.96-37.67,3.98,1.63,10.51,3.26,17.39,3.26.54,0,.9-.36.9-.91s-.36-.91-.9-.91ZM474.8,397.08c1.63-7.42,5.61-10.14,8.88-10.14,3.08,0,5.61,1.99,5.61,5.98,0,.91-.36,2.18-.72,3.26-1.99,5.98-7.42,9.96-17.2,11.41,1.63-3.62,2.71-7.43,3.44-10.51Z"/>
      <path class="cls-3" d="M616.05,396c-1.27-3.45-2.54-7.07-2.54-13.58,0-2.18,0-3.62.19-5.25,0-1.45.18-2.9.18-5.25,0-20.64-8.87-44.54-50.34-44.54-26.62,0-40.01,16.66-40.01,29.52,0,9.77,7.24,15.21,16.83,15.21,6.35,0,9.97-2.9,13.22-5.61,3.45-2.54,6.34-5.08,11.95-5.08,9.42,0,14.67,4.89,15.4,13.22.18,3.62.72,6.88,1.45,9.6-2.35-.18-5.07-.36-7.97-.36h-57.4c-.55,0-.91.36-.91.91s.36.91.91.91h57.4c3.08,0,5.98.18,8.33.36,3.09,10.68,8.51,14.67,13.04,14.85,3.8,0,6.51-2.54,6.51-5.8-.18-4.17-4.88-9.05-18.1-10.68-.72-2.71-1.09-5.98-1.45-9.78-.72-9.24-6.87-15.03-17.2-15.03-6.15,0-9.77,2.9-13.03,5.43-3.26,2.71-6.52,5.25-12.14,5.25-8.87,0-15.03-4.52-15.03-13.4,0-12.14,12.5-27.71,38.21-27.71,40.21,0,48.53,22.63,48.53,42.74,0,2.18,0,3.62-.19,5.25,0,1.45-.18,2.9-.18,5.25,0,6.88,1.45,10.68,2.53,14.3,1.09,2.9,1.99,5.43,1.99,9.41,0,6.34-2.53,13.94-23.18,13.94h-76.05c-.55,0-.91.37-.91.91s.36.91.91.91h76.05c22.1,0,24.99-9.05,24.99-15.76,0-4.16-1.08-7.06-1.99-10.14ZM600.48,395.09c0,2.35-1.82,3.98-4.71,3.98-3.62-.19-8.33-3.44-11.05-12.86,11.77,1.45,15.57,5.61,15.76,8.88Z"/>
    </g>
    <path class="cls-2" d="M304.46,295.77c5.56.73,11.23,1.71,16.72.59,5.49-1.13,10.86-4.97,11.88-10.48,1.37-7.39-5.18-13.7-11.36-17.99-5.04-3.5-10.4-6.78-16.38-8.12s-12.76-.45-17.35,3.62c-4.59,4.07-6.12,11.69-2.37,16.55-13.13-7.3-29.38-8.76-43.6-3.92-3.73,1.27-7.79,3.53-8.41,7.42-.75,4.66,4.26,5.33,6.74,4.12-15.41-.26-19.54,14.09,2.03,10.96,21.02-3.05,40.75-5.54,62.1-2.74Z"/>
    <path class="cls-2" d="M564.39,287.62c-2,4.46-6.37,7.49-11.01,8.99-4.64,1.51-9.6,1.7-14.48,1.86-16.07.56-32.16,1.13-48.23,1.7-.73.08-1.47.11-2.2.07-.17,0-.34-.02-.51-.04-.04,0-.08,0-.11,0-6.49-.59-7.95-9.54-2.06-12.34,4.08-1.94,8.89-2.38,13.15-.84-4.07-2.17-4.58-8.4-1.7-11.99,2.89-3.59,8.03-4.72,12.58-3.98,4.55.74,8.67,3.04,12.69,5.3-4.34-5.97.16-15.17,7.07-17.77,6.9-2.58,14.71-.25,21.17,3.3,4.69,2.58,9.13,5.9,11.97,10.43,2.84,4.53,3.88,10.44,1.69,15.31Z"/>
    <g>
      <path class="cls-4" d="M223.1,416.37c-15.4,0-24.99-2.89-30.97-6.7,5.61-3.8,7.79-8.33,7.79-12.31,0-5.61-4.17-9.96-8.7-9.96s-8.5,4.71-8.5,10.32c0,3.81,1.81,8.15,6.34,11.95-6.88,3.81-18.47,6.7-36.95,6.7-34.94,0-48.35-24.44-48.35-45.81,0-17.38,8.34-32.42,21.19-32.42,10.69,0,12.68,4.53,12.68,11.05,0,2.53-.37,5.43-.73,8.5-.54,3.08-.9,6.34-.9,9.42,0,8.69,3.44,16.11,20.28,16.11,21.55,0,22.27-9.23,21.55-26.43-1.27-16.3-.72-31.33,17.93-31.33,9.41,0,14.3,5.8,14.3,16.66,0,6.88-.18,14.31-.54,24.63-.73,13.94,8.87,15.21,13.58,15.21.54,0,.9-.37.9-.91s-.36-.91-.9-.91c-4.72,0-12.5-.91-11.77-13.4.36-10.32.55-17.75.55-24.63,0-11.59-5.8-18.46-16.12-18.46-20.46,0-21,16.83-19.74,33.14.73,17.2,0,24.62-19.73,24.62-15.57,0-18.47-6.16-18.47-14.3,0-3.08.36-6.16.91-9.24.36-3.08.72-5.98.72-8.69,0-6.88-2.54-12.86-14.49-12.86-14.12,0-22.99,16.3-22.99,34.22,0,22.27,14.13,47.63,50.16,47.63,19.02,0,31.15-3.08,38.39-7.42,6.34,4.34,16.48,7.42,32.6,7.42.54,0,.9-.36.9-.91s-.36-.91-.9-.91ZM184.53,397.72c0-4.89,2.9-8.51,6.7-8.51s6.88,3.45,6.88,8.15c0,3.62-1.99,7.79-7.42,11.4-4.53-3.44-6.16-7.6-6.16-11.04ZM143.78,299.03c-5.98,0-10.68,4.71-10.68,10.69s4.71,10.68,10.68,10.68,10.68-4.71,10.68-10.68-4.71-10.69-10.68-10.69ZM143.78,318.59c-5.07,0-8.88-3.8-8.88-8.87s3.81-8.88,8.88-8.88,8.88,3.8,8.88,8.88-3.81,8.87-8.88,8.87ZM170.04,299.03c-5.98,0-10.68,4.71-10.68,10.69s4.71,10.68,10.68,10.68,10.69-4.71,10.69-10.68-4.72-10.69-10.69-10.69ZM170.04,318.59c-5.07,0-8.87-3.8-8.87-8.87s3.8-8.88,8.87-8.88,8.88,3.8,8.88,8.88-3.8,8.87-8.88,8.87Z"/>
      <path class="cls-4" d="M261.49,433.57c-5.98,0-10.68,4.72-10.68,10.69s4.71,10.68,10.68,10.68,10.68-4.71,10.68-10.68-4.71-10.69-10.68-10.69ZM261.49,453.13c-5.08,0-8.88-3.8-8.88-8.87s3.8-8.88,8.88-8.88,8.88,3.8,8.88,8.88-3.81,8.87-8.88,8.87ZM235.24,433.57c-5.98,0-10.69,4.72-10.69,10.69s4.71,10.68,10.69,10.68,10.68-4.71,10.68-10.68-4.71-10.69-10.68-10.69ZM235.24,453.13c-5.08,0-8.87-3.8-8.87-8.87s3.8-8.88,8.87-8.88,8.87,3.8,8.87,8.88-3.8,8.87-8.87,8.87ZM256.24,323.48c-12.67,0-17.93,7.24-17.93,24.45,0,3.62.36,7.78.72,11.77.36,3.45.72,6.71.72,8.88,0,9.6-4.16,11.59-16.66,11.59-.55,0-.91.36-.91.91s.36.91.91.91c13.03,0,18.47-2.54,18.47-13.41,0-2.35-.36-5.61-.73-9.05-.36-3.98-.72-8.15-.72-11.59,0-16.48,4.53-22.63,16.12-22.63,13.76,0,17.56,9.41,17.56,28.25.18,40.92-5.61,62.83-44,62.83h-6.7c-.55,0-.91.37-.91.91s.36.91.91.91h6.7c39.84,0,46-23.36,45.81-64.65,0-19.2-4.35-30.06-19.37-30.06Z"/>
      <path class="cls-4" d="M320.07,323.48c-20.83,0-26.8,12.86-26.8,26.08,0,6.7.91,13.58,3.26,19.2-12.67,3.08-13.22,10.68-13.22,22.09,0,18.47,14.3,27.35,35.49,27.35,38.21,0,42.01-19.38,42.01-40.2,0-28.98-14.3-54.51-40.74-54.51ZM318.8,416.37c-20.28,0-33.68-8.14-33.68-25.53,0-11.04.36-17.74,12.13-20.46,3.62,7.06,9.96,11.95,20.29,11.95,7.24,0,10.86-3.26,10.86-6.71,0-4.16-4.88-8.5-13.94-8.5-6.7,0-11.95.36-16.11,1.27-2.35-5.44-3.26-11.95-3.26-18.83,0-12.67,5.43-24.26,24.99-24.26,25.17,0,38.94,24.26,38.94,52.69,0,20.64-3.81,38.38-40.21,38.38ZM299.07,370.01c3.98-.72,9.05-1.08,15.39-1.08,8.15,0,12.14,3.45,12.14,6.7,0,2.54-2.71,4.89-9.05,4.89-9.24,0-15.04-4.16-18.47-10.51Z"/>
      <path class="cls-4" d="M390.25,280.74c-24.09,0-21.73,30.97-21.73,76.42,0,34.58,3.26,61.02,20.46,61.02s20.28-30.24,20.28-52.15c0-23.91,5.07-85.3-19.01-85.3ZM407.45,366.04c0,21.72-3.08,50.33-18.47,50.33s-18.65-25.35-18.65-59.21c0-45.45-2.36-74.6,19.92-74.6s17.2,59.57,17.2,83.48Z"/>
      <path class="cls-4" d="M513.29,416.37c-6.88,0-13.4-1.62-17.2-3.25-.72-.37-1.45-.19-1.82.72-5.43,15.93-16.66,36.94-52.33,36.94-14.66,0-21-7.78-21-15.75,0-7.43,5.8-14.49,16.84-14.49,16.3,0,24.45-7.06,28.79-14.85,11.23-1.27,17.57-5.79,20.09-12.5.36-1.45.73-2.71.73-3.98,0-4.88-3.62-7.78-7.43-7.78s-8.69,3.44-10.68,11.59c-.91,3.44-1.99,7.24-3.81,11.04-1.81.19-3.44.19-5.43.19-27.89,0-38.75-15.76-38.75-33.32,0-21.55,16.48-45.45,38.75-45.45,19.92,0,38.75,15.21,38.75,48.53,0,3.25-.19,5.79-.19,7.06l.91.91h13.77c.54,0,.9-.37.9-.91s-.36-.91-.9-.91h-12.86c.18-1.45.18-3.44.18-6.15,0-34.23-19.92-50.34-40.56-50.34-23.36,0-40.56,24.99-40.56,47.26,0,18.29,11.59,35.13,40.56,35.13l4.34-.18c-4.34,7.06-11.95,12.86-26.62,12.86-11.95,0-18.65,8.14-18.65,16.3,0,8.69,7.24,17.56,22.81,17.56,36.4,0,48.35-21.55,53.96-37.67,3.98,1.63,10.51,3.26,17.39,3.26.54,0,.9-.36.9-.91s-.36-.91-.9-.91ZM471.1,393.37c1.63-7.42,5.61-10.14,8.88-10.14,3.08,0,5.61,1.99,5.61,5.98,0,.91-.36,2.18-.72,3.26-1.99,5.98-7.42,9.96-17.2,11.41,1.63-3.62,2.71-7.43,3.44-10.51Z"/>
      <path class="cls-4" d="M612.35,392.29c-1.27-3.45-2.54-7.07-2.54-13.58,0-2.18,0-3.62.19-5.25,0-1.45.18-2.9.18-5.25,0-20.64-8.87-44.54-50.34-44.54-26.62,0-40.01,16.66-40.01,29.52,0,9.77,7.24,15.21,16.83,15.21,6.35,0,9.97-2.9,13.22-5.61,3.45-2.54,6.34-5.08,11.95-5.08,9.42,0,14.67,4.89,15.4,13.22.18,3.62.72,6.88,1.45,9.6-2.35-.18-5.07-.36-7.97-.36h-57.4c-.55,0-.91.36-.91.91s.36.91.91.91h57.4c3.08,0,5.98.18,8.33.36,3.09,10.68,8.51,14.67,13.04,14.85,3.8,0,6.51-2.54,6.51-5.8-.18-4.17-4.88-9.05-18.1-10.68-.72-2.71-1.09-5.98-1.45-9.78-.72-9.24-6.87-15.03-17.2-15.03-6.15,0-9.77,2.9-13.03,5.43-3.26,2.71-6.52,5.25-12.14,5.25-8.87,0-15.03-4.52-15.03-13.4,0-12.14,12.5-27.71,38.21-27.71,40.21,0,48.53,22.63,48.53,42.74,0,2.18,0,3.62-.19,5.25,0,1.45-.18,2.9-.18,5.25,0,6.88,1.45,10.68,2.53,14.3,1.09,2.9,1.99,5.43,1.99,9.41,0,6.34-2.53,13.94-23.18,13.94h-76.05c-.55,0-.91.37-.91.91s.36.91.91.91h76.05c22.1,0,24.99-9.05,24.99-15.76,0-4.16-1.08-7.06-1.99-10.14ZM596.77,391.38c0,2.35-1.82,3.98-4.71,3.98-3.62-.19-8.33-3.44-11.05-12.86,11.77,1.45,15.57,5.61,15.76,8.88Z"/>
    </g>
  </g>
  <path class="cls-3" d="M516.34,431.86l-.57,3.78c-.08.56.2,1.11.71,1.36l3.42,1.71c1.13.56.88,2.24-.37,2.45l-3.77.63c-.56.09-.99.53-1.07,1.09l-.57,3.78c-.19,1.25-1.86,1.53-2.45.41l-1.76-3.39c-.26-.5-.81-.78-1.37-.68l-3.77.63c-1.25.21-2.03-1.3-1.14-2.2l2.68-2.73c.4-.4.49-1.01.23-1.51l-1.76-3.39c-.58-1.12.61-2.33,1.74-1.77l3.42,1.71c.5.25,1.12.15,1.51-.25l2.68-2.73c.89-.9,2.4-.14,2.22,1.11Z"/>
  <path class="cls-3" d="M201.83,290.93l1.77,2.86c.34.55,1,.82,1.63.67l3.26-.8c1.41-.35,2.44,1.32,1.5,2.43l-2.17,2.57c-.42.5-.47,1.21-.13,1.76l1.77,2.86c.77,1.24-.5,2.73-1.84,2.18l-3.11-1.27c-.6-.25-1.29-.08-1.71.42l-2.17,2.57c-.94,1.11-2.75.37-2.64-1.08l.25-3.35c.05-.65-.33-1.25-.93-1.5l-3.11-1.27c-1.35-.55-1.2-2.5.21-2.85l3.26-.8c.63-.16,1.09-.7,1.14-1.35l.25-3.35c.11-1.45,2.01-1.92,2.77-.68Z"/>
</svg>